<svg xmlns="http://www.w3.org/2000/svg" version="1.1" xmlns:xlink="http://www.w3.org/1999/xlink" xmlns:svgjs="http://svgjs.dev/svgjs" width="1000" height="281" viewBox="0 0 1000 281"><g transform="matrix(1,0,0,1,-31.192563604167788,-7.96142657969591)"><svg viewBox="0 0 408 115" data-background-color="#fcfcfc" preserveAspectRatio="xMidYMid meet" height="281" width="1000" xmlns="http://www.w3.org/2000/svg" xmlns:xlink="http://www.w3.org/1999/xlink"><g id="tight-bounds" transform="matrix(1,0,0,1,12.726565950500458,3.258235077099755)"><svg viewBox="0 0 395.52 104.05623565296706" height="104.05623565296706" width="395.52"><g><svg viewBox="0 0 686.4389724997877 180.59328348457345" height="104.05623565296706" width="395.52"><g><rect width="7.4551922648694005" height="180.59328348457345" x="263.9475701174591" y="0" fill="#99720f" opacity="1" stroke-width="0" stroke="transparent" fill-opacity="1" class="rect-o-0" data-fill-palette-color="primary" rx="1%" id="o-0" data-palette-color="#99720f"></rect></g><g transform="matrix(1,0,0,1,290.9189724997877,0.4492370235934544)"><svg viewBox="0 0 395.52 179.69480943738654" height="179.69480943738654" width="395.52"><g><svg viewBox="0 0 395.52 179.69480943738654" height="179.69480943738654" width="395.52"><g><svg viewBox="0 0 395.52 179.69480943738654" height="179.69480943738654" width="395.52"><g transform="matrix(1,0,0,1,0,0)"><svg width="395.52" viewBox="2.3999996185302734 -34.150001525878906 166.75 72.05000305175781" height="179.69480943738654" data-palette-color="#99720f"><svg></svg><svg></svg><g class="undefined-text-0" data-fill-palette-color="primary" id="text-0"><path xmlns="http://www.w3.org/2000/svg" d="M28-5.95v4.25c-2.067 1.4-4.9 2.1-8.5 2.1v0c-5.067 0-9.183-1.56-12.35-4.68-3.167-3.113-4.75-7.353-4.75-12.72v0c0-5.067 1.61-9.193 4.83-12.38 3.213-3.18 7.253-4.77 12.12-4.77v0c3.5 0 6.35 0.6 8.55 1.8v0 4.15c-1.467-0.767-2.783-1.317-3.95-1.65-1.167-0.333-2.7-0.5-4.6-0.5v0c-3.633 0-6.657 1.233-9.07 3.7-2.42 2.467-3.63 5.683-3.63 9.65v0c0 4.133 1.2 7.433 3.6 9.9 2.4 2.467 5.583 3.7 9.55 3.7v0c3.2 0 5.933-0.85 8.2-2.55zM58.4-33.7v33.7h-4.05v-15.25h-16.35v15.25h-4.05v-33.7h4.05v14.8h16.35v-14.8zM73.15-14.2v0l-0.65 1.9h11.95l-0.65-1.95-5.25-16.2c-0.4 1.433-2.2 6.85-5.4 16.25zM71.35-8.85l-3 8.85h-4.35l11.75-33.7h5.6l11.55 33.7h-4.35l-2.95-8.85zM122.65-5.95v4.25c-2.067 1.4-4.9 2.1-8.5 2.1v0c-5.067 0-9.183-1.56-12.35-4.68-3.167-3.113-4.75-7.353-4.75-12.72v0c0-5.067 1.61-9.193 4.83-12.38 3.213-3.18 7.253-4.77 12.12-4.77v0c3.5 0 6.35 0.6 8.55 1.8v0 4.15c-1.467-0.767-2.783-1.317-3.95-1.65-1.167-0.333-2.7-0.5-4.6-0.5v0c-3.633 0-6.657 1.233-9.07 3.7-2.42 2.467-3.63 5.683-3.63 9.65v0c0 4.133 1.2 7.433 3.6 9.9 2.4 2.467 5.583 3.7 9.55 3.7v0c3.2 0 5.933-0.85 8.2-2.55zM135.65-14.2v0l-0.65 1.9h11.95l-0.65-1.95-5.25-16.2c-0.4 1.433-2.2 6.85-5.4 16.25zM133.85-8.85l-3 8.85h-4.35l11.75-33.7h5.6l11.55 33.7h-4.35l-2.95-8.85z" fill="#99720f" fill-rule="nonzero" stroke="none" stroke-width="1" stroke-linecap="butt" stroke-linejoin="miter" stroke-miterlimit="10" stroke-dasharray="" stroke-dashoffset="0" font-family="none" font-weight="none" font-size="none" text-anchor="none" style="mix-blend-mode: normal" data-fill-palette-color="primary" opacity="1"></path><path xmlns="http://www.w3.org/2000/svg" d="M20.6 19.35v3.55h-12.7v14.65h-4.05v-33.7h18.5v3.55h-14.45v11.95zM32.65 3.85v33.7h-4.05v-33.7zM59.95 3.85v3.55h-9.1v30.15h-4.05v-30.15h-9.1v-3.55zM68.8 23.35v14.2h-4.05v-33.7h5.1l8.45 14.2 8.55 14.6c-0.133-3.233-0.2-8.083-0.2-14.55v0-14.25h4.05v33.7h-5.1l-8.45-14.1c-1.7-2.833-3.267-5.477-4.7-7.93-1.433-2.447-2.45-4.203-3.05-5.27v0l-0.85-1.55c0.167 3.467 0.25 8.35 0.25 14.65zM117.2 34v3.55h-18.8v-33.7h18.55v3.55h-14.5v11.55h12.8v3.55h-12.8v11.5zM142.95 28.6v0c0 2.967-1.017 5.257-3.05 6.87-2.033 1.62-4.65 2.43-7.85 2.43v0c-3.533 0-6.533-0.717-9-2.15v0-4.35c2.433 1.833 5.4 2.75 8.9 2.75v0c2.1 0 3.75-0.467 4.95-1.4 1.2-0.933 1.8-2.283 1.8-4.05v0c0-0.733-0.14-1.393-0.42-1.98-0.287-0.58-0.753-1.113-1.4-1.6-0.653-0.48-1.27-0.88-1.85-1.2-0.587-0.313-1.38-0.703-2.38-1.17v0c-0.2-0.1-0.5-0.233-0.9-0.4v0c-1.433-0.633-2.523-1.15-3.27-1.55-0.753-0.4-1.637-0.993-2.65-1.78-1.02-0.78-1.763-1.687-2.23-2.72-0.467-1.033-0.7-2.233-0.7-3.6v0c0-2.867 1.027-5.11 3.08-6.73 2.047-1.613 4.62-2.42 7.72-2.42v0c2.9 0 5.367 0.517 7.4 1.55v0 4.25c-2.033-1.333-4.467-2-7.3-2v0c-2.033 0-3.65 0.473-4.85 1.42-1.2 0.953-1.8 2.197-1.8 3.73v0c0 0.8 0.16 1.517 0.48 2.15 0.313 0.633 0.87 1.223 1.67 1.77 0.8 0.553 1.483 0.97 2.05 1.25 0.567 0.287 1.45 0.697 2.65 1.23v0c1.133 0.5 2 0.89 2.6 1.17 0.6 0.287 1.377 0.737 2.33 1.35 0.947 0.62 1.663 1.22 2.15 1.8 0.48 0.587 0.913 1.353 1.3 2.3 0.38 0.953 0.57 1.98 0.57 3.08zM169.15 28.6v0c0 2.967-1.017 5.257-3.05 6.87-2.033 1.62-4.65 2.43-7.85 2.43v0c-3.533 0-6.533-0.717-9-2.15v0-4.35c2.433 1.833 5.4 2.75 8.9 2.75v0c2.1 0 3.75-0.467 4.95-1.4 1.2-0.933 1.8-2.283 1.8-4.05v0c0-0.733-0.14-1.393-0.42-1.98-0.287-0.58-0.753-1.113-1.4-1.6-0.653-0.48-1.27-0.88-1.85-1.2-0.587-0.313-1.38-0.703-2.38-1.17v0c-0.2-0.1-0.5-0.233-0.9-0.4v0c-1.433-0.633-2.523-1.15-3.27-1.55-0.753-0.4-1.637-0.993-2.65-1.78-1.02-0.78-1.763-1.687-2.23-2.72-0.467-1.033-0.7-2.233-0.7-3.6v0c0-2.867 1.027-5.11 3.08-6.73 2.047-1.613 4.62-2.42 7.72-2.42v0c2.9 0 5.367 0.517 7.4 1.55v0 4.25c-2.033-1.333-4.467-2-7.3-2v0c-2.033 0-3.65 0.473-4.85 1.42-1.2 0.953-1.8 2.197-1.8 3.73v0c0 0.8 0.16 1.517 0.48 2.15 0.313 0.633 0.87 1.223 1.67 1.77 0.8 0.553 1.483 0.97 2.05 1.25 0.567 0.287 1.45 0.697 2.65 1.23v0c1.133 0.5 2 0.89 2.6 1.17 0.6 0.287 1.377 0.737 2.33 1.35 0.947 0.62 1.663 1.22 2.15 1.8 0.48 0.587 0.913 1.353 1.3 2.3 0.38 0.953 0.57 1.98 0.57 3.08z" fill="#99720f" fill-rule="nonzero" stroke="none" stroke-width="1" stroke-linecap="butt" stroke-linejoin="miter" stroke-miterlimit="10" stroke-dasharray="" stroke-dashoffset="0" font-family="none" font-weight="none" font-size="none" text-anchor="none" style="mix-blend-mode: normal" data-fill-palette-color="primary" opacity="1"></path></g></svg></g></svg></g></svg></g></svg></g><g transform="matrix(1,0,0,1,0,2.4041234395965603)"><svg viewBox="0 0 244.43135999999998 175.78503660538033" height="175.78503660538033" width="244.43135999999998"><g><svg xmlns="http://www.w3.org/2000/svg" data-name="Layer 1" viewBox="5.514012336730957 18.08000373840332 88.83111572265625 63.883705139160156" x="0" y="0" height="175.78503660538033" width="244.43135999999998" class="icon-icon-0" data-fill-palette-color="accent" id="icon-0"><path d="M66 50.77L62 36.31a3.86 3.86 0 0 0-3.71-2.82H41.45a3.86 3.86 0 0 0-3.71 2.82l-4 14.46A3.84 3.84 0 0 0 34 53.53l8.22 16.29a3.61 3.61 0 0 0 6.51-3.13L41.89 51.77a1.84 1.84 0 0 1-0.09-1.3l0.27-0.89 0 0.87a1 1 0 0 0 0.14 0.57l5.46 9a2.49 2.49 0 0 0 2.24 1.39 2.45 2.45 0 0 0 2.2-1.32L57.57 51a1 1 0 0 0 0.14-0.57l0-0.87 0.27 0.89a1.85 1.85 0 0 1-0.09 1.3L51 66.69a3.61 3.61 0 0 0 6.51 3.13l8.22-16.29A3.84 3.84 0 0 0 66 50.77ZM64 52.63L55.74 68.92a1.61 1.61 0 0 1-2.9-1.4L59.67 52.6a3.85 3.85 0 0 0 0.19-2.71l-2.63-8.75a1 1 0 0 0-1-0.71H56.1a1 1 0 0 0-0.83 1l0.43 8.77-5.38 8.89a0.52 0.52 0 0 1-0.95-0.07L44 50.24l0.43-8.77a1 1 0 0 0-2-0.34l-2.63 8.75a3.85 3.85 0 0 0 0.19 2.71l6.84 14.92a1.61 1.61 0 0 1-2.9 1.4L35.78 52.63a1.84 1.84 0 0 1-0.13-1.33l4-14.46a1.85 1.85 0 0 1 1.78-1.35H58.29a1.85 1.85 0 0 1 1.78 1.35l4 14.46A1.84 1.84 0 0 1 64 52.63ZM49.87 32.08a7 7 0 1 0-7-7A7 7 0 0 0 49.87 32.08Zm0-12a5 5 0 1 1-5 5A5 5 0 0 1 49.87 20.11ZM35.67 60a1 1 0 0 0-1.36-0.4L7.85 74a4.2 4.2 0 1 0 4 7.38L38.33 67a1 1 0 0 0 0.4-1.36ZM10.91 79.63a2.2 2.2 0 0 1-2.1-3.87L34.39 61.85l2.1 3.87ZM92.15 74L65.69 59.61a1 1 0 0 0-1.36 0.4l-3.06 5.62a1 1 0 0 0 0.4 1.36L88.13 81.38a4.17 4.17 0 0 0 2 0.51 4.23 4.23 0 0 0 1.2-0.17A4.2 4.2 0 0 0 92.15 74Zm-0.07 4.74a2.2 2.2 0 0 1-3 0.88L63.51 65.71l2.1-3.87L91.19 75.76A2.2 2.2 0 0 1 92.07 78.75Z" fill="#99720f" data-fill-palette-color="accent"></path></svg></g></svg></g></svg></g><defs></defs></svg><rect width="395.52" height="104.05623565296706" fill="none" stroke="none" visibility="hidden"></rect></g></svg></g></svg>